HIERARCHY
ROOT hip
{
  OFFSET 0.0 0.0 0.0
  CHANNELS 6 Xposition Yposition Zposition Zrotation Yrotation Xrotation
  JOINT abdomen
  {
    OFFSET 0.0 20.6881 -0.73152
    CHANNELS 3 Zrotation Xrotation Yrotation
    JOINT chest
    {
      OFFSET 0.0 11.7043 -0.48768
      CHANNELS 3 Zrotation Xrotation Yrotation
      JOINT neck
      {
        OFFSET 0.0 22.1894 -2.19456
        CHANNELS 3 Zrotation Xrotation Yrotation
        JOINT head
        {
          OFFSET -0.24384 7.07133 1.2192
          CHANNELS 3 Zrotation Xrotation Yrotation
          JOINT leftEye
          {
            OFFSET 4.14528 8.04674 8.04672
            CHANNELS 3 Zrotation Xrotation Yrotation
            End Site
            {
              OFFSET 1.0 0.0 0.0
            }
          }
          JOINT rightEye
          {
            OFFSET -3.6576 8.04674 8.04672
            CHANNELS 3 Zrotation Xrotation Yrotation
            End Site
            {
              OFFSET 1.0 0.0 0.0
            }
          }
        }
      }
      JOINT rCollar
      {
        OFFSET -2.68224 19.2634 -4.8768
        CHANNELS 3 Zrotation Xrotation Yrotation
        JOINT rShldr
        {
          OFFSET -8.77824 -1.95073 1.46304
          CHANNELS 3 Zrotation Xrotation Yrotation
          JOINT rForeArm
          {
            OFFSET -28.1742 -1.7115 0.48768
            CHANNELS 3 Zrotation Xrotation Yrotation
            JOINT rHand
            {
              OFFSET -22.5879 0.773209 7.07136
              CHANNELS 3 Zrotation Xrotation Yrotation
              JOINT rThumb1
              {
                OFFSET -1.2192 -0.487915 3.41376
                CHANNELS 3 Zrotation Xrotation Yrotation
                JOINT rThumb2
                {
                  OFFSET -3.37035 -0.52449 3.41376
                  CHANNELS 3 Zrotation Xrotation Yrotation
                  End Site
                  {
                    OFFSET -1.78271 -1.18214 1.43049
                  }
                }
              }
              JOINT rIndex1
              {
                OFFSET -7.75947 0.938293 5.60832
                CHANNELS 3 Zrotation Xrotation Yrotation
                JOINT rIndex2
                {
                  OFFSET -2.54057 -0.884171 1.56538
                  CHANNELS 3 Zrotation Xrotation Yrotation
                  End Site
                  {
                    OFFSET -1.62519 -0.234802 1.16502
                  }
                }
              }
              JOINT rMid1
              {
                OFFSET -8.24714 1.18213 3.41376
                CHANNELS 3 Zrotation Xrotation Yrotation
                JOINT rMid2
                {
                  OFFSET -3.10165 -0.590103 1.0647
                  CHANNELS 3 Zrotation Xrotation Yrotation
                  End Site
                  {
                    OFFSET -2.48547 -0.328903 0.83742
                  }
                }
              }
              JOINT rRing1
              {
                OFFSET -8.82822 0.546677 1.51678
                CHANNELS 3 Zrotation Xrotation Yrotation
                JOINT rRing2
                {
                  OFFSET -2.60934 -0.819778 -0.0198488
                  CHANNELS 3 Zrotation Xrotation Yrotation
                  End Site
                  {
                    OFFSET -2.33842 -0.294052 0.168128
                  }
                }
              }
              JOINT rPinky1
              {
                OFFSET -8.27202 -0.0477905 -0.4584
                CHANNELS 3 Zrotation Xrotation Yrotation
                JOINT rPinky2
                {
                  OFFSET -1.82734 -0.647385 -0.700984
                  CHANNELS 3 Zrotation Xrotation Yrotation
                  End Site
                  {
                    OFFSET -1.69225 -0.51767 -0.607171
                  }
                }
              }
            }
          }
        }
      }
      JOINT lCollar
      {
        OFFSET 2.68224 19.2634 -4.8768
        CHANNELS 3 Zrotation Xrotation Yrotation
        JOINT lShldr
        {
          OFFSET 8.77824 -1.95073 1.46304
          CHANNELS 3 Zrotation Xrotation Yrotation
          JOINT lForeArm
          {
            OFFSET 28.1742 -1.7115 0.48768
            CHANNELS 3 Zrotation Xrotation Yrotation
            JOINT lHand
            {
              OFFSET 22.5879 0.773209 7.07136
              CHANNELS 3 Zrotation Xrotation Yrotation
              JOINT lThumb1
              {
                OFFSET 1.2192 -0.487915 3.41376
                CHANNELS 3 Zrotation Xrotation Yrotation
                JOINT lThumb2
                {
                  OFFSET 3.37035 -0.52449 3.41376
                  CHANNELS 3 Zrotation Xrotation Yrotation
                  End Site
                  {
                    OFFSET 1.78271 -1.18214 1.43049
                  }
                }
              }
              JOINT lIndex1
              {
                OFFSET 7.75947 0.938293 5.60832
                CHANNELS 3 Zrotation Xrotation Yrotation
                JOINT lIndex2
                {
                  OFFSET 2.54057 -0.884171 1.56538
                  CHANNELS 3 Zrotation Xrotation Yrotation
                  End Site
                  {
                    OFFSET 1.62519 -0.234802 1.16502
                  }
                }
              }
              JOINT lMid1
              {
                OFFSET 8.24714 1.18213 3.41376
                CHANNELS 3 Zrotation Xrotation Yrotation
                JOINT lMid2
                {
                  OFFSET 3.10165 -0.590103 1.0647
                  CHANNELS 3 Zrotation Xrotation Yrotation
                  End Site
                  {
                    OFFSET 2.48547 -0.328903 0.83742
                  }
                }
              }
              JOINT lRing1
              {
                OFFSET 8.82822 0.546677 1.51678
                CHANNELS 3 Zrotation Xrotation Yrotation
                JOINT lRing2
                {
                  OFFSET 2.60934 -0.819778 -0.0198488
                  CHANNELS 3 Zrotation Xrotation Yrotation
                  End Site
                  {
                    OFFSET 2.33842 -0.294052 0.168128
                  }
                }
              }
              JOINT lPinky1
              {
                OFFSET 8.27202 -0.0477905 -0.4584
                CHANNELS 3 Zrotation Xrotation Yrotation
                JOINT lPinky2
                {
                  OFFSET 1.82734 -0.647385 -0.700984
                  CHANNELS 3 Zrotation Xrotation Yrotation
                  End Site
                  {
                    OFFSET 1.69225 -0.51767 -0.607171
                  }
                }
              }
            }
          }
        }
      }
    }
  }
  JOINT rButtock
  {
    OFFSET -8.77824 4.35084 1.2192
    CHANNELS 3 Zrotation Xrotation Yrotation
    JOINT rThigh
    {
      OFFSET 0.0 -1.70687 -2.19456
      CHANNELS 3 Zrotation Xrotation Yrotation
      JOINT rShin
      {
        OFFSET 0.0 -36.8199 0.73152
        CHANNELS 3 Zrotation Xrotation Yrotation
        JOINT rFoot
        {
          OFFSET 0.73152 -45.1104 -5.12064
          CHANNELS 3 Zrotation Xrotation Yrotation
          End Site
          {
            OFFSET -1.1221 -3.69964 12.103
          }
        }
      }
    }
  }
  JOINT lButtock
  {
    OFFSET 8.77824 4.35084 1.2192
    CHANNELS 3 Zrotation Xrotation Yrotation
    JOINT lThigh
    {
      OFFSET 0.0 -1.70687 -2.19456
      CHANNELS 3 Zrotation Xrotation Yrotation
      JOINT lShin
      {
        OFFSET 0.0 -36.8199 0.73152
        CHANNELS 3 Zrotation Xrotation Yrotation
        JOINT lFoot
        {
          OFFSET -0.73152 -45.1104 -5.12064
          CHANNELS 3 Zrotation Xrotation Yrotation
          End Site
          {
            OFFSET 1.1221 -3.69964 12.103
          }
        }
      }
    }
  }
}
MOTION
Frames: 4
Frame Time: 0.00833333
0.0 84.6108 0.0 2.9181 14.1147 5.781 -4.26132 2.18793 -2.14652 4.13118 -4.76837 -0.432605 1.26687 -3.3401 -0.774616 -0.383231 -17.1346 -2.04144 -0.0 0.0 0.0 -0.0 0.0 0.0 1.45369e-14 3.06109e-14 -1.58034e-14 80.5853 17.174 -2.42069 -10.9734 -4.75428 19.64 -0.0127264 -3.21913 -0.452901 2.00971e-10 -8.79869e-11 -5.85451e-10 3.49584e-10 -1.54527e-10 -1.01308e-09 2.00974e-10 -8.79805e-11 -5.85464e-10 7.73091 5.47488 0.417314 2.00967e-10 -8.79841e-11 -5.85454e-10 2.90554 0.965183 0.102902 2.00979e-10 -8.79833e-11 -5.85447e-10 10.2786 0.731801 0.0259123 2.00969e-10 -8.79837e-11 -5.85435e-10 2.22167 -0.733487 -0.20892 1.44866e-14 3.0614e-14 -1.60022e-14 -82.4461 1.43226 7.56836 6.99916 -2.50797 -12.2821 0.321321 15.9207 -2.29755 -3.79277e-10 3.4604e-10 1.50408e-10 -6.54623e-10 5.98498e-10 2.6438e-10 -3.79283e-10 3.46043e-10 1.50421e-10 -7.73091 5.47488 -0.417314 -3.79276e-10 3.46039e-10 1.50415e-10 -2.90554 0.965183 -0.102902 -3.79289e-10 3.46039e-10 1.50415e-10 -10.2786 0.731801 -0.0259123 -3.79275e-10 3.46041e-10 1.50408e-10 -2.22167 -0.733487 0.20892 -2.03217e-16 0.0 -3.88251e-19 -5.17978 -32.5339 -10.7769 -0.349918 39.5758 0.530562 -2.14814 -0.458127 -13.9677 2.03217e-16 0.0 3.88251e-19 2.93858 1.06942 -1.33496 0.218151 34.4721 -0.661284 1.54869 14.5575 -5.91953
-0.05482000000000031 85.157 0.8345000000000056 2.7026 14.147 5.7955 -3.61797 2.1055 -2.03596 3.99797 -4.77384 -0.391299 1.26215 -3.38505 -0.836298 -0.4179 -17.2492 -2.17071 -0.0 0.0 0.0 -0.0 0.0 0.0 3.71601e-15 1.59929e-14 9.23161e-14 80.5736 17.1697 -2.72093 -10.9993 -4.77125 19.6892 -0.0119972 -3.12121 -0.439098 3.57273e-12 6.09023e-10 -5.16372e-11 6.64739e-12 1.05375e-09 -8.93156e-11 3.57624e-12 6.09028e-10 -5.16486e-11 7.73091 5.47488 0.417314 3.57142e-12 6.09023e-10 -5.16381e-11 2.90554 0.965183 0.102902 3.58075e-12 6.09024e-10 -5.16332e-11 10.2786 0.731801 0.0259123 3.57069e-12 6.09023e-10 -5.16206e-11 2.22167 -0.733487 -0.20892 3.66797e-15 1.59982e-14 9.21278e-14 -82.4392 1.25476 7.65695 6.91177 -2.46365 -12.127 0.345885 16.4075 -2.37277 -5.4373e-10 -6.82165e-10 3.54094e-10 -9.35224e-10 -1.18144e-09 6.19412e-10 -5.43734e-10 -6.82162e-10 3.54106e-10 -7.73091 5.47488 -0.417314 -5.43729e-10 -6.82164e-10 3.541e-10 -2.90554 0.965183 -0.102902 -5.4374e-10 -6.82164e-10 3.541e-10 -10.2786 0.731801 -0.0259123 -5.43727e-10 -6.82163e-10 3.54093e-10 -2.22167 -0.733487 0.20892 -2.03217e-16 0.0 -3.88251e-19 -4.59802 -31.3687 -10.5586 -0.330265 38.4142 0.467104 -1.8819 0.20781 -13.4576 2.03217e-16 0.0 3.88251e-19 3.35007 -0.787168 -1.23456 0.267509 37.0142 -0.686115 1.50213 14.6762 -5.72673
-0.09132000000000051 85.7144 1.6476000000000042 2.5163 14.0737 5.8085 -3.02501 2.03609 -1.84849 3.87494 -4.76849 -0.327809 1.27298 -3.42733 -0.902552 -0.478708 -17.3953 -2.31859 -0.0 0.0 0.0 -0.0 0.0 0.0 1.30958e-15 -1.83923e-14 2.13489e-13 80.536 17.1445 -3.00729 -11.0475 -4.80279 19.7809 -0.0114156 -3.04337 -0.428128 -3.38444e-10 1.43368e-09 7.48048e-10 -5.86785e-10 2.48367e-09 1.2945e-09 -3.38439e-10 1.43369e-09 7.48039e-10 7.73091 5.47488 0.417314 -3.3844e-10 1.43368e-09 7.48051e-10 2.90554 0.965183 0.102902 -3.38435e-10 1.43368e-09 7.48051e-10 10.2786 0.731801 0.0259123 -3.38447e-10 1.43368e-09 7.48065e-10 2.22167 -0.733487 -0.20892 1.26223e-15 -1.83836e-14 2.13299e-13 -82.48 1.45189 7.67194 6.89429 -2.45399 -12.0971 0.355733 16.586 -2.40061 -7.36436e-10 -1.88445e-09 3.95646e-10 -1.26528e-09 -3.26293e-09 6.94912e-10 -7.36437e-10 -1.88445e-09 3.95656e-10 -7.73091 5.47488 -0.417314 -7.36433e-10 -1.88445e-09 3.95651e-10 -2.90554 0.965183 -0.102902 -7.36443e-10 -1.88445e-09 3.95651e-10 -10.2786 0.731801 -0.0259123 -7.36431e-10 -1.88445e-09 3.95643e-10 -2.22167 -0.733487 0.20892 -2.03217e-16 0.0 -3.88251e-19 -4.06381 -30.2898 -10.2576 -0.312179 37.2898 0.403131 -1.59234 1.01704 -12.8969 2.03217e-16 0.0 3.88251e-19 3.67612 -2.69219 -1.03806 0.322261 39.5771 -0.716502 1.2991 14.0762 -5.0251
-0.11527000000000065 86.2806 2.449000000000005 2.3544 13.9021 5.8094 -2.48052 1.99061 -1.6124 3.75991 -4.74824 -0.251557 1.28892 -3.47452 -0.966519 -0.539847 -17.5482 -2.4639 -0.0 0.0 0.0 -0.0 0.0 0.0 4.62199e-15 -5.43179e-14 3.26166e-13 80.4638 17.1282 -3.24185 -11.1039 -4.83977 19.8884 -0.011084 -3.00052 -0.422087 -7.25158e-10 2.23731e-09 1.53554e-09 -1.25745e-09 3.87711e-09 2.65723e-09 -7.25152e-10 2.23731e-09 1.53553e-09 7.73091 5.47488 0.417314 -7.25149e-10 2.2373e-09 1.53555e-09 2.90554 0.965183 0.102902 -7.25147e-10 2.2373e-09 1.53554e-09 10.2786 0.731801 0.0259123 -7.25162e-10 2.2373e-09 1.53556e-09 2.22167 -0.733487 -0.20892 4.57437e-15 -5.43062e-14 3.25971e-13 -82.5659 2.0127 7.6443 6.95355 -2.4831 -12.2033 0.346789 16.4069 -2.37289 -9.37532e-10 -3.03297e-09 3.99534e-10 -1.61033e-09 -5.25139e-09 7.05153e-10 -9.3753e-10 -3.03296e-09 3.99542e-10 -7.73091 5.47488 -0.417314 -9.37528e-10 -3.03296e-09 3.99538e-10 -2.90554 0.965183 -0.102902 -9.37535e-10 -3.03296e-09 3.99538e-10 -10.2786 0.731801 -0.0259123 -9.37525e-10 -3.03296e-09 3.99529e-10 -2.22167 -0.733487 0.20892 -2.03217e-16 0.0 -3.88251e-19 -3.60013 -29.2859 -9.9388 -0.296269 36.2327 0.343613 -1.29384 1.94362 -12.2759 2.03217e-16 0.0 3.88251e-19 3.94717 -4.58841 -0.740324 0.37966 42.0384 -0.751779 1.05654 13.1392 -4.10564
